<?xml version="1.0" encoding="UTF-8" standalone="no"?>
<!-- Created with Inkscape (http://www.inkscape.org/) -->

<svg
   width="24.000002in"
   height="24.000002in"
   viewBox="0 0 609.60005 609.60005"
   version="1.1"
   id="svg1"
   xmlns="http://www.w3.org/2000/svg"
   xmlns:svg="http://www.w3.org/2000/svg">
  <defs
     id="defs1" />
  <g
     id="layer1"
     style="fill:#ffffff;fill-opacity:1">
    <g
       id="g18"
       style="display:none;fill:#ffffff;fill-opacity:1">
      <path
         id="path2"
         style="display:inline;fill:#ffffff;fill-opacity:1;stroke-width:0"
         d="M 304.79998,50.799983 A 254.00001,254.00001 0 0 0 50.799983,304.79998 a 254.00001,254.00001 0 0 0 253.999997,254 254.00001,254.00001 0 0 0 254,-254 254.00001,254.00001 0 0 0 -254,-253.999997 z m 0,42.333333 A 211.66668,211.66668 0 0 1 516.46664,304.79998 211.66668,211.66668 0 0 1 304.79998,516.46664 211.66668,211.66668 0 0 1 93.133316,304.79998 211.66668,211.66668 0 0 1 304.79998,93.133316 Z" />
      <path
         id="path5-9"
         style="display:inline;fill:#ffffff;fill-opacity:1;stroke-width:0"
         d="M 213.35999,472.44 137.16,396.24 h 76.19843 z" />
      <path
         id="path2-6"
         style="display:inline;fill:#ffffff;fill-opacity:1;stroke-width:0"
         d="m 304.79998,206.0222 a 98.777779,98.777779 0 0 0 -98.77778,98.77778 98.777779,98.777779 0 0 0 98.77778,98.77778 98.777779,98.777779 0 0 0 98.77778,-98.77778 98.777779,98.777779 0 0 0 -98.77778,-98.77778 z m 0,42.33334 a 56.444443,56.444443 0 0 1 56.44444,56.44444 56.444443,56.444443 0 0 1 -56.44444,56.44444 56.444443,56.444443 0 0 1 -56.44444,-56.44444 56.444443,56.444443 0 0 1 56.44444,-56.44444 z" />
      <path
         id="path6"
         style="display:inline;fill:#ffffff;fill-opacity:1;stroke-width:0"
         d="M 402.00162,70.134433 326.40016,252.65215 a 56.444443,56.444443 0 0 1 30.54765,30.54765 L 539.46552,207.59834 A 254.00001,254.00001 0 0 0 402.00162,70.134433 Z" />
    </g>
    <path
       id="rect7"
       style="display:none;fill:#ffffff;fill-opacity:1;stroke-width:0"
       d="M 95.25,38.1 152.4,95.25 95.25,152.4 38.1,95.25 Z" />
    <path
       id="rect7-2"
       style="display:none;fill:#ffffff;fill-opacity:1;stroke-width:0"
       d="m 514.35001,457.20001 57.15,57.15 -57.15,57.15 -57.15,-57.15 z" />
    <g
       id="g29"
       style="display:inline;fill:#ffffff;fill-opacity:1">
      <path
         id="path10"
         style="display:inline;fill:#ffffff;fill-opacity:1;stroke-width:0"
         d="M 609.59996,182.87999 426.71996,0 h 182.87623 z" />
      <path
         id="path11"
         style="display:inline;fill:#ffffff;fill-opacity:1;stroke-width:0"
         d="M 182.88,609.59996 H 1.2e-6 L 0,426.71995 Z" />
    </g>
    <g
       id="g43"
       style="fill:#ffffff;fill-opacity:1">
      <g
         id="g19"
         style="display:inline;fill:#ffffff;fill-opacity:1">
        <path
           id="path18"
           style="fill:#ffffff;fill-opacity:1;stroke-width:0"
           d="m 304.8,50.8 a 254,254 0 0 0 -254,254 254,254 0 0 0 254,254 254,254 0 0 0 254,-254 254,254 0 0 0 -254,-254 z m 0,45.720207 A 208.28,208.28 0 0 1 513.07979,304.8 208.28,208.28 0 0 1 304.8,513.07979 208.28,208.28 0 0 1 96.520207,304.8 208.28,208.28 0 0 1 304.8,96.520207 Z" />
        <path
           d="M 304.8,203.2 A 101.6,101.6 0 0 0 203.2,304.8 101.6,101.6 0 0 0 304.8,406.4 101.6,101.6 0 0 0 406.4,304.8 101.6,101.6 0 0 0 304.8,203.2 Z m 0,40.6399 A 60.959999,60.959999 0 0 1 365.7601,304.8 60.959999,60.959999 0 0 1 304.8,365.7601 60.959999,60.959999 0 0 1 243.8399,304.8 60.959999,60.959999 0 0 1 304.8,243.8399 Z"
           style="display:inline;fill:#ffffff;fill-opacity:1;stroke-width:0"
           id="path25" />
        <path
           d="M 397.89148,68.473857 327.14179,248.0815 a 60.959999,60.959999 0 0 1 33.97777,33.39021 l 178.3457,-73.87353 A 254,254 0 0 0 397.89148,68.473857 Z"
           style="fill:#ffffff;fill-opacity:1;stroke-width:0"
           id="path27" />
        <path
           id="path22"
           style="display:inline;fill:#ffffff;fill-opacity:1;stroke-width:0"
           d="M 218.43999,467.36 142.24,391.16 h 76.19843 z" />
      </g>
      <circle
         style="display:inline;fill:#ffffff;fill-opacity:1;stroke-width:0"
         id="path3"
         cx="60.959999"
         cy="60.959999"
         r="60.959999" />
      <circle
         style="display:inline;fill:#ffffff;fill-opacity:1;stroke-width:0"
         id="path3-3"
         cx="548.63995"
         cy="548.63995"
         r="60.959999" />
      <path
         d="M 182.87308,609.6 A 328.2823,328.2823 0 0 1 0,426.72692 V 609.6 Z"
         style="display:inline;fill:#ffffff;fill-opacity:1;stroke-width:0"
         id="path42" />
      <path
         d="M 426.72692,0 A 328.2823,328.2823 0 0 1 609.6,182.87308 L 609.59638,0 Z"
         style="display:inline;fill:#ffffff;fill-opacity:1;stroke-width:0"
         id="path40" />
    </g>
  </g>
</svg>
